<mxfile host="app.diagrams.net" modified="2024-02-05T14:13:56.188Z" agent="Mozilla/5.0 (Windows NT 10.0; Win64; x64; rv:122.0) Gecko/20100101 Firefox/122.0" version="23.1.1" etag="RFw33VoH8tjBTwxvKQzg" type="github">
  <diagram name="Page-1" id="vivfYJkoACwGQ4k9ebn1">
    <mxGraphModel>
      <root>
        <mxCell id="0" />
        <mxCell id="1" parent="0" />
      </root>
    </mxGraphModel>
  </diagram>
</mxfile>
